<svg xmlns:xlink="http://www.w3.org/1999/xlink" width="18" height="9" viewBox="0 0 18 9" fill="none" xmlns="http://www.w3.org/2000/svg">
<path d="M9.20275 8.75468C9.74388 7.25311 9.74387 7.25311 13.2492 5.66317C11.7536 5.4735 10.6937 5.31884 9.62915 5.2092C8.48785 5.09123 7.34361 4.98493 6.19767 4.92865C4.646 4.85236 3.09052 4.85069 1.53927 4.77149C0.92476 4.73981 -0.0178786 5.00452 0.000257318 3.98694C0.0162844 3.08608 0.925611 3.08775 1.55657 3.09817C3.84887 3.13611 6.14241 3.2199 8.43049 3.36664C9.70253 3.44793 10.964 3.68763 12.455 3.88564C11.1572 2.29528 9.02518 1.94845 7.95306 -4.39166e-07C8.62957 0.0375179 9.10194 -0.0483566 9.47605 0.102967C12.2399 1.22143 14.8358 2.63503 17.1189 4.56389C17.3234 4.73647 17.5309 4.92031 17.6823 5.13625C18.2462 5.94039 18.059 6.79539 17.1239 7.06344C14.6663 7.76795 12.1783 8.36991 9.69832 8.9973C9.60342 9.02064 9.46762 8.88891 9.20275 8.75468Z" fill="white"/>
</svg>