<svg xmlns="http://www.w3.org/2000/svg" style="display: none;">
    <symbol id="menu-burger" focusable="false" viewBox="0 0 24 24">
        <path d="M3 18h18v-2H3v2zm0-5h18v-2H3v2zm0-7v2h18V6H3z"></path>
    </symbol>
    <symbol id="menu-home" xmlns="http://www.w3.org/2000/svg" width="22" height="22"
        viewBox="0 0 22 22" fill="none">
        <path fill-rule="evenodd" clip-rule="evenodd"
            d="M12.319 2.89022C11.617 2.14393 10.383 2.14393 9.68104 2.89022L2.62222 10.3946C2.33508 10.6998 2.17647 11.094 2.17647 11.5025V18.4394C2.17647 19.3604 2.96655 20.107 3.94117 20.107H8.32026V14.3142H8.4962C8.70366 13.9981 9.07418 13.7876 9.49673 13.7876H12.5342C13.1669 13.7876 13.6797 14.2722 13.6797 14.8701V20.107H18.0588C19.0334 20.107 19.8235 19.3604 19.8235 18.4394V11.5025C19.8235 11.094 19.6649 10.6998 19.3778 10.3946L12.319 2.89022ZM12.5033 15.4259V21.2188H18.0588C19.6832 21.2188 21 19.9744 21 18.4394V11.5025C21 10.8218 20.7357 10.1647 20.2571 9.65595L13.1983 2.15161C12.0283 0.907796 9.97171 0.907796 8.80174 2.15161L1.74291 9.65595C1.26435 10.1647 1 10.8218 1 11.5025V18.4394C1 19.9744 2.31681 21.2188 3.94117 21.2188H9.49673V15.4259H12.5033Z"
            fill="#464948" stroke="#464948" stroke-width="0.7" />
    </symbol>
    <symbol id="menu-gmat" xmlns="http://www.w3.org/2000/svg" width="22" height="19"
        viewBox="0 0 22 19" fill="none">
        <path
            d="M10.2578 16.6688C9.51494 15.7966 8.27501 14.8638 7.07415 14.2736C5.86162 13.6776 4.7099 13.3466 3.40227 13.2186C3.14446 13.1936 2.93071 13.1703 2.92729 13.167C2.92396 13.167 2.93062 10.4751 2.94396 7.1926L2.96596 1.22458L3.20402 1.24792C4.66583 1.39292 6.29738 1.94525 7.53185 2.71509C8.59574 3.37842 9.69435 4.40276 10.3948 5.38426L10.571 5.63126V11.3003C10.571 14.4181 10.5577 16.9686 10.5417 16.9681C10.525 16.9676 10.3975 16.8328 10.2578 16.6688ZM11.4687 11.2859V5.59326L11.8091 5.13843C12.2437 4.55776 13.1179 3.68292 13.696 3.25042C15.2412 2.09392 16.9174 1.44042 18.8418 1.24375L19.0859 1.21875V7.1951V13.1716L18.8027 13.1983C16.1232 13.4476 13.8002 14.5531 11.9832 16.4435L11.4687 16.9788V11.2859ZM13.1289 16.5918C14.1806 15.6051 15.5728 14.8211 16.9713 14.4276C17.7032 14.2218 18.6549 14.0781 19.2866 14.0781C19.6179 14.0781 19.8016 14.0065 19.9052 13.8363C19.9832 13.708 19.9841 13.6528 19.9842 8.81011L19.9844 3.91309L20.1309 3.93976C20.2114 3.95643 20.4399 4.01976 20.6387 4.08309L21 4.19809V10.3096C21 13.671 20.9867 16.4211 20.9702 16.4211C20.9535 16.4211 20.712 16.3695 20.433 16.3061C19.3307 16.0578 18.4228 15.9725 17.2305 16.0046C15.7843 16.0446 14.6603 16.2463 13.3242 16.708L12.8164 16.8835L13.1289 16.5918ZM8.67573 16.6868C8.12086 16.4881 7.20449 16.254 6.58587 16.153C5.74473 16.0163 5.16443 15.98 4.13353 16.003C3.10922 16.0246 2.48966 16.0963 1.64445 16.2881C1.40812 16.3415 1.16642 16.3965 1.10733 16.4081L1 16.4315L1.00018 10.3036L1.00038 4.17559L1.4592 4.04226C1.71154 3.96893 1.93999 3.90059 1.96684 3.89226C2.00567 3.87559 2.01567 4.87393 2.01567 8.78377C2.01567 14.1266 2.004 13.8288 2.23197 13.9786C2.3113 14.0303 2.47614 14.0536 2.94686 14.082C4.81763 14.1886 6.59274 14.8168 8.04191 15.8856C8.35441 16.1161 9.10439 16.7491 9.14738 16.8186C9.17738 16.867 9.15738 16.862 8.67584 16.6886L8.67573 16.6868Z"
            stroke="#464948" stroke-width="1.1" />
    </symbol>
    <symbol id="menu-messages" xmlns="http://www.w3.org/2000/svg" width="23" height="16"
        viewBox="0 0 23 16" fill="none">
        <path
            d="M20.9286 0.290527H2.07143C1.65466 0.290527 1.25496 0.456088 0.960261 0.750788C0.665561 1.04549 0.5 1.44519 0.5 1.86196V14.4334C0.5 14.8502 0.665561 15.2499 0.960261 15.5446C1.25496 15.8393 1.65466 16.0048 2.07143 16.0048H20.9286C21.3453 16.0048 21.745 15.8393 22.0397 15.5446C22.3344 15.2499 22.5 14.8502 22.5 14.4334V1.86196C22.5 1.44519 22.3344 1.04549 22.0397 0.750788C21.745 0.456088 21.3453 0.290527 20.9286 0.290527ZM19.2 1.86196L11.5 7.1891L3.8 1.86196H19.2ZM2.07143 14.4334V2.57696L11.0521 8.79196C11.1837 8.8832 11.3399 8.93209 11.5 8.93209C11.6601 8.93209 11.8163 8.8832 11.9479 8.79196L20.9286 2.57696V14.4334H2.07143Z"
            fill="#4F4F4F" />
    </symbol>
    <symbol id="menu-tests" xmlns="http://www.w3.org/2000/svg" width="21" height="22"
        viewBox="0 0 21 22" fill="none">
        <path fill-rule="evenodd" clip-rule="evenodd"
            d="M2.875 19.9795H14.125C14.6428 19.9795 15.0625 19.5318 15.0625 18.9795V2.97949C15.0625 2.42721 14.6428 1.97949 14.125 1.97949H2.875C2.35723 1.97949 1.9375 2.42721 1.9375 2.97949V18.9795C1.9375 19.5318 2.35723 19.9795 2.875 19.9795ZM14.125 20.9795H2.875C1.83947 20.9795 1 20.084 1 18.9795V2.97949C1 1.87492 1.83947 0.979492 2.875 0.979492H14.125C15.1605 0.979492 16 1.87492 16 2.97949V18.9795C16 20.084 15.1605 20.9795 14.125 20.9795Z"
            fill="#464948" stroke="#464948" stroke-width="0.6" />
        <path fill-rule="evenodd" clip-rule="evenodd"
            d="M20 6.43404H19V17.5855L19.5 17.9795L20 17.5855V6.43404ZM21 18.0704L19.5 19.9795L18 18.0704V4.97949H21V18.0704Z"
            fill="#464948" />
        <path fill-rule="evenodd" clip-rule="evenodd"
            d="M20 2.45898H19V3.45898H20V2.45898ZM19 1.45898H20C20.5523 1.45898 21 1.90668 21 2.45898V4.45898H18V2.45898C18 1.90668 18.4477 1.45898 19 1.45898Z"
            fill="#464948" />
    </symbol>
    <symbol id="menu-schools" xmlns="http://www.w3.org/2000/svg" width="20" height="19"
        viewBox="0 0 20 19" fill="none">
        <path
            d="M11.9548 1.56178C10.7674 0.785411 9.23317 0.785397 8.04581 1.56173L0.323392 6.61091C0.123306 6.74174 0.00193437 6.96398 2.29407e-05 7.20304C-0.000188488 7.22947 0.00106291 7.25571 0.00372005 7.28167C0.00149148 7.30465 0.000348638 7.32797 0.000348638 7.35155V13.0659C0.000348638 13.4603 0.320149 13.7801 0.714636 13.7801C1.10912 13.7801 1.42892 13.4603 1.42892 13.0659V8.55503L2.8575 9.52203V14.7801C2.8575 14.9497 2.91863 15.1146 3.0284 15.2437L3.02948 15.245L3.03231 15.2483L3.04068 15.258L3.06824 15.2891C3.09138 15.3149 3.12408 15.3507 3.16611 15.3949C3.25013 15.4833 3.37174 15.606 3.5293 15.7514C3.84394 16.0419 4.30482 16.4257 4.89892 16.809C6.08556 17.5746 7.82584 18.3516 10.0005 18.3516C12.1752 18.3516 13.9154 17.5744 15.102 16.809C15.6961 16.4257 16.157 16.0419 16.4715 15.7514C16.6291 15.606 16.7507 15.4833 16.8347 15.3949C16.8767 15.3506 16.9094 15.3149 16.9325 15.2891L16.9601 15.258L16.9685 15.2483L16.9712 15.245L16.9732 15.2427C17.083 15.1136 17.1432 14.9497 17.1432 14.7801V9.52166L19.6861 7.80025C19.8841 7.66624 20.0024 7.50211 20 7.20304C19.9981 6.964 19.8767 6.74175 19.6767 6.61092L11.9548 1.56178ZM15.7147 10.4887V14.4976C15.6577 14.555 15.5868 14.6239 15.5025 14.7017C15.2368 14.947 14.8405 15.2776 14.3275 15.6086C13.2998 16.2716 11.8258 16.923 10.0005 16.923C8.17517 16.923 6.70108 16.2716 5.67338 15.6086C5.1603 15.2776 4.76399 14.947 4.49824 14.7017C4.41394 14.6239 4.34307 14.555 4.28607 14.4976V10.489L7.99827 13.0019C9.20747 13.8203 10.7931 13.8203 12.0023 13.0017L15.7147 10.4887ZM3.57179 14.7801L3.0284 15.2437C3.0284 15.2437 3.02756 15.2427 3.57179 14.7801ZM8.82758 2.7574C9.54 2.2916 10.4606 2.29161 11.173 2.75744L17.9964 7.2087L11.2015 11.8188C10.476 12.3099 9.52458 12.3099 8.79907 11.8188L2.00377 7.21905L8.82758 2.7574Z"
            fill="#464948" />
    </symbol>
    <symbol id="menu-reviews" xmlns="http://www.w3.org/2000/svg" width="22" height="21"
        viewBox="0 0 22 21" fill="none">
        <path
            d="M13.2665 7.61303L13.4428 8.02844L13.8924 8.06721L19.6955 8.56761L15.2969 12.3851L14.9558 12.6811L15.0578 13.121L16.3729 18.7927L11.3865 15.7831L10.999 15.5492L10.6114 15.7831L5.62791 18.791L6.95041 13.122L7.05326 12.6811L6.7111 12.3847L2.30728 8.56966L8.10448 8.07783L8.55513 8.03959L8.73162 7.62318L10.9995 2.27228L13.2665 7.61303Z"
            stroke="#464948" stroke-width="1.5" />
    </symbol>
    <symbol id="menu-social" xmlns="http://www.w3.org/2000/svg" width="20" height="21"
        viewBox="0 0 20 21" fill="none">
        <path
            d="M2.85547 3.20871C2.85547 1.63075 4.13465 0.351562 5.71261 0.351562C7.29057 0.351562 8.56976 1.63075 8.56976 3.20871C8.56976 4.12979 8.1339 4.94908 7.45718 5.47156C7.43683 5.48658 7.4166 5.50178 7.39651 5.51713C6.92431 5.86218 6.34224 6.06585 5.71261 6.06585C4.13465 6.06585 2.85547 4.78666 2.85547 3.20871ZM5.71261 1.78013C4.92364 1.78013 4.28404 2.41973 4.28404 3.20871C4.28404 3.99768 4.92364 4.63728 5.71261 4.63728C6.50158 4.63728 7.14118 3.99768 7.14118 3.20871C7.14118 2.41973 6.50158 1.78013 5.71261 1.78013Z"
            fill="#464948" />
        <path
            d="M12.5423 5.47156C11.8655 4.94908 11.4297 4.12979 11.4297 3.20871C11.4297 1.63075 12.7089 0.351562 14.2868 0.351562C15.8648 0.351562 17.144 1.63075 17.144 3.20871C17.144 4.78666 15.8648 6.06585 14.2868 6.06585C13.6573 6.06585 13.0751 5.86219 12.6029 5.51715C12.5828 5.50178 12.5626 5.48658 12.5423 5.47156ZM14.2868 1.78013C13.4978 1.78013 12.8583 2.41973 12.8583 3.20871C12.8583 3.99768 13.4978 4.63728 14.2868 4.63728C15.0758 4.63728 15.7154 3.99768 15.7154 3.20871C15.7154 2.41973 15.0758 1.78013 14.2868 1.78013Z"
            fill="#464948" />
        <path
            d="M2.14283 7.49414H5.95816C5.80021 7.94097 5.71429 8.4218 5.71429 8.92271H2.14283C1.74839 8.92271 1.42857 9.24253 1.42857 9.637C1.42857 10.804 1.89219 11.6695 2.62586 12.2584C2.9632 12.5291 3.3672 12.7484 3.82389 12.9078C3.49217 13.2613 3.23159 13.6823 3.06496 14.1479C2.5793 13.9503 2.12997 13.6921 1.73164 13.3724C0.655671 12.5088 0 11.2314 0 9.637C0 8.45358 0.959371 7.49414 2.14283 7.49414Z"
            fill="#464948" />
        <path
            d="M7.52676 7.494C7.28366 7.91424 7.14453 8.40216 7.14453 8.92257C7.14453 10.1276 7.89056 11.1584 8.94597 11.5783C9.27256 11.7083 9.62877 11.7797 10.0017 11.7797C10.3746 11.7797 10.7308 11.7083 11.0574 11.5783C12.1128 11.1584 12.8588 10.1276 12.8588 8.92257C12.8588 8.40216 12.7197 7.91424 12.4766 7.494C11.9826 6.64 11.0592 6.06543 10.0017 6.06543C8.94413 6.06543 8.02077 6.64 7.52676 7.494ZM9.68115 7.5301C9.78419 7.50647 9.89147 7.494 10.0017 7.494C10.1119 7.494 10.2192 7.50647 10.3222 7.5301C10.9568 7.67559 11.4302 8.2438 11.4302 8.92257C11.4302 9.03277 11.4178 9.14006 11.3941 9.2431C11.2487 9.87774 10.6804 10.3511 10.0017 10.3511C9.3229 10.3511 8.75469 9.87774 8.6092 9.2431C8.58559 9.14007 8.5731 9.03277 8.5731 8.92257C8.5731 8.2438 9.0465 7.67559 9.68115 7.5301Z"
            fill="#464948" />
        <path
            d="M17.3713 12.2584C17.0341 12.5291 16.6301 12.7484 16.1733 12.9078C16.5051 13.2613 16.7656 13.6823 16.9322 14.1479C17.4179 13.9503 17.8672 13.6921 18.2656 13.3724C19.3415 12.5088 19.9972 11.2314 19.9972 9.637C19.9972 8.45353 19.0378 7.49414 17.8543 7.49414H14.0391C14.1969 7.94097 14.2829 8.4218 14.2829 8.92271H17.8543C18.2488 8.92271 18.5686 9.24251 18.5686 9.637C18.5686 10.804 18.1051 11.6695 17.3713 12.2584Z"
            fill="#464948" />
        <path
            d="M13.5709 13.209C14.465 13.209 15.2312 13.7566 15.5524 14.5347C15.6563 14.7866 15.7137 15.0626 15.7137 15.3518C15.7137 16.9463 15.058 18.2237 13.9822 19.0873C12.9232 19.9373 11.5038 20.3518 9.99944 20.3518C8.49504 20.3518 7.07576 19.9373 6.0168 19.0873C4.94083 18.2237 4.28516 16.9463 4.28516 15.3518C4.28516 15.0626 4.34251 14.7866 4.44647 14.5347C4.7677 13.7566 5.5339 13.209 6.42798 13.209H13.5709ZM13.5709 14.6376H6.42798C6.03354 14.6376 5.71373 14.9574 5.71373 15.3518C5.71373 16.5188 6.17734 17.3843 6.91101 17.9731C7.6617 18.5757 8.74241 18.9233 9.99944 18.9233C11.2565 18.9233 12.3372 18.5757 13.0879 17.9731C13.8216 17.3843 14.2852 16.5188 14.2852 15.3518C14.2852 14.9574 13.9653 14.6376 13.5709 14.6376Z"
            fill="#464948" />
    </symbol>
    <symbol id="menu-chat" xmlns="http://www.w3.org/2000/svg" width="22" height="20"
        viewBox="0 0 22 20" fill="none">
        <path fill-rule="evenodd" clip-rule="evenodd"
            d="M4.3475 13.9691C4.47725 14.0993 4.57667 14.2566 4.63868 14.4296C4.70069 14.6027 4.72376 14.7873 4.70625 14.9703C4.6184 15.8173 4.45185 16.6542 4.20875 17.4703C5.9525 17.0666 7.0175 16.5991 7.50125 16.3541C7.77563 16.2151 8.09161 16.1822 8.38875 16.2616C9.24054 16.4886 10.1185 16.603 11 16.6016C15.995 16.6016 19.75 13.0928 19.75 9.10156C19.75 5.11156 15.995 1.60156 11 1.60156C6.005 1.60156 2.25 5.11156 2.25 9.10156C2.25 10.9366 3.02125 12.6391 4.3475 13.9691ZM3.73125 18.8503C3.43509 18.909 3.13796 18.9628 2.84 19.0116C2.59 19.0516 2.4 18.7916 2.49875 18.5591C2.60974 18.2973 2.71147 18.0317 2.80375 17.7628L2.8075 17.7503C3.1175 16.8503 3.37 15.8153 3.4625 14.8516C1.92875 13.3141 1 11.3016 1 9.10156C1 4.26906 5.4775 0.351562 11 0.351562C16.5225 0.351562 21 4.26906 21 9.10156C21 13.9341 16.5225 17.8516 11 17.8516C10.0096 17.8529 9.02323 17.7243 8.06625 17.4691C7.41625 17.7978 6.0175 18.3966 3.73125 18.8503Z"
            fill="#464948" stroke="#464948" stroke-width="0.5" />
    </symbol>
    <symbol id="menu-my-profile" xmlns="http://www.w3.org/2000/svg" width="22" height="22"
        viewBox="0 0 22 22" fill="none">
        <path
            d="M11.109 12.4386C11.0904 12.4386 11.0625 12.4386 11.0439 12.4386C11.016 12.4386 10.9788 12.4386 10.9509 12.4386C8.83921 12.3735 7.25781 10.727 7.25781 8.69903C7.25781 6.63392 8.94153 4.9502 11.0067 4.9502C13.0718 4.9502 14.7555 6.63392 14.7555 8.69903C14.7462 10.7363 13.1555 12.3735 11.1369 12.4386C11.1183 12.4386 11.1183 12.4386 11.109 12.4386ZM10.9974 6.33624C9.69505 6.33624 8.64386 7.39671 8.64386 8.68973C8.64386 9.96417 9.63924 10.9967 10.9044 11.0432C10.9323 11.0339 11.0253 11.0339 11.1183 11.0432C12.3648 10.9781 13.3416 9.95487 13.3509 8.68973C13.3509 7.39671 12.2997 6.33624 10.9974 6.33624Z"
            fill="#464948" stroke="#464948" stroke-width="0.3" />
        <path
            d="M11.0054 21.0165C8.50306 21.0165 6.11237 20.0862 4.2612 18.3932C4.09376 18.2444 4.01934 18.0211 4.03795 17.8072C4.15888 16.7002 4.84725 15.6676 5.99144 14.9048C8.76353 13.063 13.2565 13.063 16.0193 14.9048C17.1635 15.6769 17.8519 16.7002 17.9728 17.8072C18.0007 18.0304 17.917 18.2444 17.7496 18.3932C15.8984 20.0862 13.5077 21.0165 11.0054 21.0165ZM5.49841 17.6211C7.0426 18.9141 8.98678 19.6211 11.0054 19.6211C13.024 19.6211 14.9682 18.9141 16.5124 17.6211C16.3449 17.0537 15.8984 16.5048 15.2379 16.0583C12.9496 14.5327 9.07051 14.5327 6.76353 16.0583C6.10306 16.5048 5.66585 17.0537 5.49841 17.6211Z"
            fill="#464948" stroke="#464948" stroke-width="0.3" />
        <path
            d="M11 21.0156C5.48372 21.0156 1 16.5319 1 11.0156C1 5.49935 5.48372 1.01562 11 1.01562C16.5163 1.01562 21 5.49935 21 11.0156C21 16.5319 16.5163 21.0156 11 21.0156ZM11 2.41097C6.25581 2.41097 2.39535 6.27144 2.39535 11.0156C2.39535 15.7598 6.25581 19.6203 11 19.6203C15.7442 19.6203 19.6047 15.7598 19.6047 11.0156C19.6047 6.27144 15.7442 2.41097 11 2.41097Z"
            fill="#464948" stroke="#464948" stroke-width="0.3" />
    </symbol>
    <symbol id="menu-edit" xmlns="http://www.w3.org/2000/svg" width="15" height="15"
        viewBox="0 0 15 15" fill="none">
        <path
            d="M2.00028 10.2143L11.7146 0.5L14.0003 2.78571L4.28599 12.5M2.00028 10.2143L0.857422 13.6429L4.28599 12.5M2.00028 10.2143L4.28599 12.5M9.42885 2.78571L11.7146 5.07143"
            stroke="black" stroke-linecap="round" stroke-linejoin="round" />
    </symbol>
    <symbol id="menu-item" width="15" height="15" viewBox="0 0 24 24">
        <path
            d="M21 12C21 16.9706 16.9706 21 12 21C7.02944 21 3 16.9706 3 12C3 7.02944 7.02944 3 12 3C16.9706 3 21 7.02944 21 12Z"
            stroke="inherit" stroke-width="2" stroke-linecap="round" stroke-linejoin="round"
            fill="inherit" fill-rule="evenodd" />
    </symbol>
    <symbol id="menu-arrow-left" xmlns="http://www.w3.org/2000/svg" width="37" height="46"
        viewBox="0 0 37 46">
        <g filter="url(#filter0_d_2011_2438)">
            <path d="M8 23L36.5 4.81347L36.5 41.1865L8 23Z" fill="white" />
        </g>
        <defs>
            <filter id="filter0_d_2011_2438" x="0" y="0.813477" width="36.5" height="44.373"
                filterUnits="userSpaceOnUse" color-interpolation-filters="sRGB">
                <feFlood flood-opacity="0" result="BackgroundImageFix" />
                <feColorMatrix in="SourceAlpha" type="matrix"
                    values="0 0 0 0 0 0 0 0 0 0 0 0 0 0 0 0 0 0 127 0" result="hardAlpha" />
                <feOffset dx="-4" />
                <feGaussianBlur stdDeviation="2" />
                <feComposite in2="hardAlpha" operator="out" />
                <feColorMatrix type="matrix" values="0 0 0 0 0 0 0 0 0 0 0 0 0 0 0 0 0 0 0.15 0" />
                <feBlend mode="normal" in2="BackgroundImageFix"
                    result="effect1_dropShadow_2011_2438" />
                <feBlend mode="normal" in="SourceGraphic" in2="effect1_dropShadow_2011_2438"
                    result="shape" />
            </filter>
        </defs>
    </symbol>
    <symbol id="menu-arrow-left-gray" xmlns="http://www.w3.org/2000/svg" width="37" height="46"
        viewBox="0 0 37 46">
        <g filter="url(#filter0_d_2011_2438)">
            <path d="M8 23L36.5 4.81347L36.5 41.1865L8 23Z" fill="#eef3fc" />
        </g>
        <defs>
            <filter id="filter0_d_2011_2438" x="0" y="0.813477" width="36.5" height="44.373"
                filterUnits="userSpaceOnUse" color-interpolation-filters="sRGB">
                <feFlood flood-opacity="0" result="BackgroundImageFix" />
                <feColorMatrix in="SourceAlpha" type="matrix"
                    values="0 0 0 0 0 0 0 0 0 0 0 0 0 0 0 0 0 0 127 0" result="hardAlpha" />
                <feOffset dx="-4" />
                <feGaussianBlur stdDeviation="2" />
                <feComposite in2="hardAlpha" operator="out" />
                <feColorMatrix type="matrix" values="0 0 0 0 0 0 0 0 0 0 0 0 0 0 0 0 0 0 0.15 0" />
                <feBlend mode="normal" in2="BackgroundImageFix"
                    result="effect1_dropShadow_2011_2438" />
                <feBlend mode="normal" in="SourceGraphic" in2="effect1_dropShadow_2011_2438"
                    result="shape" />
            </filter>
        </defs>
    </symbol>
    <symbol id="menu-decision-tracker" width="18" height="19" viewBox="0 0 46 47"
        xmlns="http://www.w3.org/2000/svg">
        <path
            d="M0 11.5C0 5.14873 5.14873 0 11.5 0H34.5C40.8513 0 46 5.14873 46 11.5V34.5C46 40.8513 40.8513 46 34.5 46H11.5C5.14873 46 0 40.8513 0 34.5V11.5Z"
            fill="#CC3C3C" />
        <path
            d="M12 25.9844L17.3918 24.1433L16.7747 26.4514C19.2629 27.3339 21.0213 28.604 22.1626 30.1641C22.6671 30.8574 23.0394 31.5928 23.3039 32.365C23.5684 31.5928 23.9406 30.8574 24.4451 30.1641C25.5864 28.604 27.3448 27.3339 29.833 26.4514L29.2159 24.1433L34.6087 25.9844L30.9449 30.6053L30.318 28.2678C28.1236 29.0557 26.708 30.1325 25.8362 31.3302C24.8335 32.6977 24.4935 34.2624 24.5757 35.9674L22.0303 35.9999C22.1185 34.2822 21.7805 32.7064 20.7715 31.3302C19.8997 30.1325 18.4841 29.0557 16.2849 28.2678L15.6604 30.6053L12 25.9844Z"
            fill="white" />
        <path
            d="M23.8954 10.0023C22.7292 9.96306 21.6485 10.4244 20.8216 11.288C19.9948 12.1518 19.5391 13.3085 19.5391 14.5473C19.5391 15.0107 19.8897 15.3869 20.322 15.3869C20.7541 15.3869 21.1049 15.0107 21.1049 14.5473C21.1049 13.7656 21.3925 13.0363 21.9133 12.4918C22.4343 11.9485 23.0878 11.6456 23.8534 11.6817C25.2479 11.7211 26.4132 12.9708 26.45 14.4675C26.4785 15.5761 25.8995 16.6136 24.9758 17.1111C23.7545 17.7692 22.9949 19.066 22.9949 20.4938C22.9949 20.9574 23.3457 21.3334 23.7778 21.3334C24.2101 21.3334 24.5608 20.9574 24.5608 20.4938C24.5608 19.7043 24.989 18.9828 25.6791 18.6111C27.1431 17.8229 28.0597 16.1784 28.0158 14.4227C27.9571 12.048 26.1088 10.0657 23.8954 10.0023Z"
            fill="white" stroke="white" stroke-width="0.163193" />
        <path
            d="M24.3239 24.0923C24.6321 23.7642 24.634 23.2342 24.3282 22.9037C24.0251 22.5761 23.5308 22.574 23.2226 22.9019C22.9171 23.2269 22.9152 23.7571 23.2182 24.0847C23.524 24.4152 24.0185 24.4173 24.3239 24.0923Z"
            fill="white" stroke="white" stroke-width="0.163193" />
    </symbol>
    <symbol id="menu-latest-video" xmlns="http://www.w3.org/2000/svg" width="30" height="31"
        viewBox="0 0 30 31" fill="none">
        <path
            d="M25.5 0.5H4.5C2.01472 0.5 0 2.51472 0 5V26C0 28.4853 2.01472 30.5 4.5 30.5H25.5C27.9853 30.5 30 28.4853 30 26V5C30 2.51472 27.9853 0.5 25.5 0.5Z"
            fill="#FF0000" />
        <path
            d="M25.0193 10.4021C24.785 9.52324 24.0232 8.82011 23.1443 8.58574C21.1521 8.05839 9.14043 7.9998 6.85527 8.58574C5.97636 8.82011 5.21464 9.52324 4.98027 10.4021C4.45293 12.6287 4.39433 18.3123 4.98027 20.5975C5.21464 21.4764 5.97636 22.1795 6.85527 22.4139C8.96464 22.9998 20.9764 22.9998 23.1443 22.4139C24.0232 22.1795 24.785 21.4764 25.0193 20.5975C25.5467 18.4881 25.5467 12.5701 25.0193 10.4021Z"
            fill="white" />
        <path d="M12.8906 12.3945V18.6055L18.3398 15.5" fill="#FF0000" />
    </symbol>
    <symbol id="menu-instagram" xmlns="http://www.w3.org/2000/svg" width="30" height="31"
        viewBox="0 0 30 31" fill="none">
        <path
            d="M25.5 0.5H4.5C2.01472 0.5 0 2.51472 0 5V26C0 28.4853 2.01472 30.5 4.5 30.5H25.5C27.9853 30.5 30 28.4853 30 26V5C30 2.51472 27.9853 0.5 25.5 0.5Z"
            fill="black" />
        <path
            d="M25.5 0.5H4.5C2.01472 0.5 0 2.51472 0 5V26C0 28.4853 2.01472 30.5 4.5 30.5H25.5C27.9853 30.5 30 28.4853 30 26V5C30 2.51472 27.9853 0.5 25.5 0.5Z"
            fill="url(#paint0_radial_1048_62413)" />
        <path
            d="M25.5 0.5H4.5C2.01472 0.5 0 2.51472 0 5V26C0 28.4853 2.01472 30.5 4.5 30.5H25.5C27.9853 30.5 30 28.4853 30 26V5C30 2.51472 27.9853 0.5 25.5 0.5Z"
            fill="url(#paint1_linear_1048_62413)" />
        <path
            d="M19.2773 6.47656H10.7227C8.10146 6.47656 5.97656 8.60146 5.97656 11.2227V19.7773C5.97656 22.3985 8.10146 24.5234 10.7227 24.5234H19.2773C21.8985 24.5234 24.0234 22.3985 24.0234 19.7773V11.2227C24.0234 8.60146 21.8985 6.47656 19.2773 6.47656Z"
            stroke="white" stroke-width="1.75781" />
        <path
            d="M15 19.7188C17.33 19.7188 19.2188 17.83 19.2188 15.5C19.2188 13.17 17.33 11.2812 15 11.2812C12.67 11.2812 10.7812 13.17 10.7812 15.5C10.7812 17.83 12.67 19.7188 15 19.7188Z"
            stroke="white" stroke-width="1.75781" />
        <path
            d="M20.332 10.5195C20.5262 10.5195 20.6836 10.3621 20.6836 10.168C20.6836 9.97381 20.5262 9.81641 20.332 9.81641C20.1379 9.81641 19.9805 9.97381 19.9805 10.168C19.9805 10.3621 20.1379 10.5195 20.332 10.5195Z"
            stroke="white" stroke-width="1.75781" />
        <defs>
            <radialGradient id="paint0_radial_1048_62413" cx="0" cy="0" r="1"
                gradientUnits="userSpaceOnUse" gradientTransform="translate(12 30.5) scale(30)">
                <stop offset="0.1" stop-color="#FFDD55" />
                <stop offset="0.5" stop-color="#FF543E" />
                <stop offset="1" stop-color="#C837AB" />
            </radialGradient>
            <linearGradient id="paint1_linear_1048_62413" x1="0" y1="0.5" x2="6" y2="30.5"
                gradientUnits="userSpaceOnUse">
                <stop offset="0.1" stop-color="#3771C8" />
                <stop offset="0.5" stop-color="#6600FF" stop-opacity="0" />
            </linearGradient>
        </defs>
    </symbol>
    <symbol id="menu-facebook" xmlns="http://www.w3.org/2000/svg" width="30" height="31"
        viewBox="0 0 30 31" fill="none">
        <path
            d="M25.5 0.5H4.5C2.01472 0.5 0 2.51472 0 5V26C0 28.4853 2.01472 30.5 4.5 30.5H25.5C27.9853 30.5 30 28.4853 30 26V5C30 2.51472 27.9853 0.5 25.5 0.5Z"
            fill="#1877F2" />
        <path
            d="M20.8359 19.8359L21.5039 15.5H17.3438V12.6875C17.3438 11.5039 17.9238 10.3438 19.7871 10.3438H21.6797V6.65234C21.6797 6.65234 19.9629 6.35938 18.3223 6.35938C14.8945 6.35938 12.6563 8.43359 12.6563 12.1953V15.5H8.84766V19.8359H12.6563V30.5H17.3438V19.8359H20.8359Z"
            fill="white" />
    </symbol>
    <symbol id="menu-twitter" width="32" height="31" viewBox="0 0 32 31" fill="none"
        xmlns="http://www.w3.org/2000/svg">
        <rect y="0.5" width="32" height="30" rx="4" fill="#4F4F4F" />
        <path
            d="M22.2911 4.50976H25.8509L18.0735 13.3996L27.2249 25.5H20.0584L14.4434 18.1617L8.0224 25.5H4.46255L12.7825 15.9797L4 4.5H11.348L16.4224 11.2059L22.2911 4.50976ZM21.042 23.3668H23.0152L10.2805 6.52779H8.16292L21.042 23.3668Z"
            fill="white" />
    </symbol>
    <symbol id="menu-spotify" xmlns="http://www.w3.org/2000/svg" width="31" height="30"
        viewBox="0 0 31 30" fill="none">
        <path
            d="M23.947 0H7.05295C3.43386 0 0.5 2.93386 0.5 6.55295V23.447C0.5 27.0661 3.43386 30 7.05295 30H23.947C27.5661 30 30.5 27.0661 30.5 23.447V6.55295C30.5 2.93386 27.5661 0 23.947 0Z"
            fill="#10BC4C" />
        <path d="M23.009 7.53223H8V22.5546H23.009V7.53223Z" fill="#10BC4C" />
        <path fill-rule="evenodd" clip-rule="evenodd"
            d="M15.5045 7.53223C11.377 7.53223 8 10.9122 8 15.0434C8 19.1745 11.377 22.5546 15.5045 22.5546C19.632 22.5546 23.009 19.1745 23.009 15.0434C23.009 10.9122 19.6695 7.53223 15.5045 7.53223ZM18.9566 18.3858C18.8065 18.6112 18.5438 18.6863 18.3187 18.5361C16.5551 17.447 14.3413 17.2216 11.7147 17.8225C11.4521 17.8977 11.2269 17.7098 11.1519 17.4845C11.0768 17.2216 11.2645 16.9963 11.4896 16.9212C14.3413 16.2827 16.8178 16.5456 18.769 17.7474C19.0316 17.8601 19.0691 18.1605 18.9566 18.3858ZM19.8571 16.3203C19.6695 16.5832 19.3318 16.6958 19.0691 16.5081C17.0429 15.2687 13.9661 14.8932 11.6022 15.6443C11.302 15.7194 10.9643 15.5692 10.8892 15.2687C10.8142 14.9683 10.9643 14.6303 11.2645 14.5552C14.0036 13.7289 17.3806 14.1421 19.707 15.5692C19.9322 15.6818 20.0447 16.0574 19.8571 16.3203ZM19.9322 14.2172C17.5307 12.7901 13.5158 12.6398 11.2269 13.3534C10.8517 13.4661 10.4765 13.2407 10.3639 12.9027C10.2514 12.5271 10.4765 12.1516 10.8142 12.0389C13.4783 11.2502 17.8684 11.4005 20.6451 13.0529C20.9828 13.2407 21.0954 13.6914 20.9077 14.0294C20.7201 14.2923 20.2699 14.4049 19.9322 14.2172Z"
            fill="white" />
    </symbol>
    <symbol id="menu-reddit" xmlns="http://www.w3.org/2000/svg" width="31" height="30"
        viewBox="0 0 31 30" fill="none">
        <path
            d="M0.5 10C0.5 4.47715 4.97715 0 10.5 0H20.5C26.0228 0 30.5 4.47715 30.5 10V20C30.5 25.5228 26.0228 30 20.5 30H10.5C4.97715 30 0.5 25.5228 0.5 20V10Z"
            fill="#FF4500" />
        <path
            d="M22.9998 15.1374C23.0021 15.2903 22.9829 15.4429 22.9424 15.5905C22.9019 15.7381 22.8405 15.8796 22.76 16.0102C22.6798 16.1407 22.5812 16.2596 22.4675 16.3632C22.384 16.4391 22.293 16.5062 22.1959 16.5634C22.1319 16.6011 22.0922 16.6703 22.0947 16.7446C22.0981 16.8264 22.0981 16.9083 22.0947 16.9901C22.0933 17.0311 22.0908 17.0721 22.0877 17.1129C22.0877 19.613 19.1487 21.6443 15.5227 21.6443C11.8968 21.6443 8.95777 19.613 8.95777 17.1129C8.95466 17.0721 8.95214 17.0311 8.95073 16.9901C8.94735 16.9083 8.94735 16.8264 8.95073 16.7446C8.95326 16.6707 8.91261 16.6022 8.84786 16.5667C8.67592 16.4723 8.52215 16.348 8.39406 16.1994C8.23924 16.0198 8.12565 15.809 8.06113 15.5816C7.99672 15.3541 7.98302 15.1154 8.02093 14.8821C8.05884 14.6488 8.1475 14.4265 8.28072 14.2305C8.41385 14.0346 8.58835 13.8697 8.79218 13.7473C8.99601 13.6249 9.22428 13.548 9.4611 13.5218C9.69799 13.4955 9.9378 13.5205 10.1639 13.5952C10.5591 13.7257 11.0128 13.7853 11.3772 13.5844C11.5098 13.5114 11.6445 13.442 11.7811 13.3764C12.1316 13.2084 12.4939 13.0655 12.8652 12.9495C13.2366 12.8334 13.616 12.7444 14.0003 12.6827C14.6751 12.5744 15.2642 12.1082 15.408 11.44L15.9957 8.70849C16.005 8.66357 16.0233 8.62117 16.0494 8.58323C16.0754 8.54555 16.1088 8.51318 16.1474 8.48834C16.1863 8.4635 16.2296 8.4465 16.2752 8.43811C16.3206 8.43002 16.3673 8.43087 16.4123 8.44063L17.6145 8.67894C18.5466 8.86373 19.6626 8.16812 20.5501 8.50787C21.0661 8.70544 21.3611 9.24534 21.2457 9.78166C21.1306 10.318 20.639 10.6918 20.0867 10.6637C19.8982 10.654 19.7216 10.5986 19.5684 10.5081C19.0359 10.1936 18.6148 9.5829 18.0093 9.45672C17.2389 9.29614 16.4839 9.78976 16.3221 10.5599L16.1204 11.5194C15.9971 12.1059 16.4395 12.6572 17.0308 12.755C17.7908 12.8806 18.5285 13.1142 19.221 13.4487C19.2835 13.4788 19.3456 13.5098 19.4073 13.5415C19.897 13.7936 20.505 13.6999 21.0461 13.5968C21.3575 13.5373 21.6797 13.5684 21.9737 13.6864C22.2677 13.8043 22.521 14.0041 22.7031 14.2615C22.8852 14.519 22.9883 14.8231 22.9998 15.1374ZM11.8247 16.6807C11.8816 16.816 11.9644 16.9391 12.0691 17.0426C12.1735 17.1464 12.2977 17.2284 12.4342 17.2848C12.5709 17.3408 12.7173 17.3696 12.8652 17.3696C13.3207 17.3696 13.7312 17.0975 13.9057 16.6807C14.08 16.2635 13.9834 15.7836 13.6614 15.4644C13.3393 15.1452 12.8551 15.0494 12.4342 15.2222C12.0136 15.3952 11.7391 15.802 11.7391 16.2535C11.7391 16.4 11.7681 16.5451 11.8247 16.6807ZM18.2783 19.3395C18.2771 19.3458 18.2845 19.3497 18.2888 19.3449C18.3375 19.2909 18.365 19.221 18.3661 19.1482C18.3672 19.068 18.3359 18.991 18.2796 18.9338C18.2233 18.8766 18.1465 18.844 18.0659 18.8429C17.9852 18.8418 17.9075 18.8727 17.8424 18.921C17.6731 19.0414 17.4938 19.1473 17.3064 19.2377C17.119 19.3281 16.9243 19.4027 16.7243 19.4607C16.5244 19.5184 16.3197 19.5594 16.1128 19.5831C15.9056 19.6069 15.697 19.613 15.489 19.6019C15.2812 19.6111 15.0729 19.6027 14.8665 19.577C14.6601 19.5516 14.4563 19.5087 14.2573 19.4487C14.058 19.3889 13.8646 19.3125 13.6785 19.2204C13.4924 19.1283 13.3145 19.0206 13.1467 18.8987C13.0885 18.8512 13.0144 18.827 12.939 18.8306C12.8635 18.8342 12.7923 18.8658 12.7388 18.9185C12.6856 18.9715 12.6538 19.0421 12.6501 19.1169C12.643 19.2643 12.7775 19.369 12.9001 19.4511C13.0437 19.5473 13.1931 19.6349 13.3475 19.7134C13.5679 19.8256 13.7979 19.9186 14.0343 19.9917C14.2708 20.0648 14.5132 20.1175 14.759 20.1496C15.0047 20.1814 15.2528 20.1923 15.5002 20.1822C15.7477 20.1923 15.9957 20.1814 16.2414 20.1496C16.7337 20.0854 17.2112 19.9379 17.653 19.7134C17.8683 19.6039 18.0741 19.4767 18.268 19.333C18.2728 19.3294 18.2795 19.3336 18.2783 19.3395ZM18.0733 17.4367C18.0704 17.448 18.0789 17.459 18.0906 17.4589C18.2354 17.4576 18.3787 17.4284 18.5127 17.3732C18.6538 17.3149 18.7813 17.229 18.8877 17.1204C18.9941 17.0119 19.0769 16.883 19.1315 16.7415C19.1861 16.6002 19.2111 16.4493 19.205 16.2981C19.205 15.8466 18.9305 15.4398 18.5099 15.2668C18.089 15.0941 17.6049 15.1898 17.2828 15.509C16.9607 15.8282 16.8642 16.3082 17.0384 16.7253C17.21 17.1351 17.6095 17.405 18.0557 17.414C18.0675 17.4142 18.0761 17.4253 18.0733 17.4367Z"
            fill="white" />
    </symbol>
    <symbol id="menu-linkedin" xmlns="http://www.w3.org/2000/svg" width="31" height="30"
        viewBox="0 0 31 30" fill="none">
        <path
            d="M28.2869 0.000113607H2.71311C2.13286 -0.00579167 1.57397 0.218731 1.15906 0.624416C0.744158 1.0301 0.507134 1.58381 0.5 2.16405V27.8411C0.508424 28.4205 0.746015 28.9729 1.16078 29.3776C1.57554 29.7822 2.1337 30.006 2.71311 30.0001H28.2869C28.8672 30.0047 29.4257 29.7794 29.8404 29.3735C30.2551 28.9676 30.4922 28.414 30.5 27.8337V2.15667C30.4897 1.57814 30.2514 1.02707 29.837 0.623242C29.4225 0.21942 28.8655 -0.00451467 28.2869 0.000113607Z"
            fill="#0076B2" />
        <path
            d="M4.94004 13.472C4.94004 12.2423 5.93694 11.2454 7.16668 11.2454C8.39641 11.2454 9.39331 12.2423 9.39331 13.472V23.3475C9.39331 24.5772 8.39641 25.5741 7.16668 25.5741C5.93694 25.5741 4.94004 24.5772 4.94004 23.3475V13.472ZM7.16791 4.11426C7.67868 4.11426 8.17797 4.26575 8.60262 4.54957C9.02728 4.83339 9.35822 5.23678 9.55357 5.70872C9.74892 6.18065 9.7999 6.69993 9.70008 7.20085C9.60025 7.70177 9.3541 8.16183 8.99276 8.52282C8.63142 8.88382 8.17113 9.12953 7.67011 9.22888C7.1691 9.32823 6.64987 9.27675 6.17812 9.08095C5.70637 8.88515 5.3033 8.55383 5.01988 8.1289C4.73647 7.70397 4.58545 7.20454 4.58594 6.69377C4.58659 6.00941 4.85891 5.35331 5.34305 4.86963C5.82719 4.38595 6.48355 4.11426 7.16791 4.11426Z"
            fill="white" />
        <path
            d="M12.1875 13.3796C12.1875 12.2008 13.1431 11.2452 14.3219 11.2452H15.4727C16.016 11.2452 16.4564 11.6856 16.4564 12.2288V13.1756C16.4564 13.1959 16.4728 13.2124 16.4932 13.2124C16.5068 13.2124 16.5193 13.205 16.5257 13.193C17.1271 12.0726 18.5737 10.8985 20.7277 10.8985C25.2375 10.8886 26.0736 13.8567 26.0736 17.705V23.3472C26.0736 24.577 25.0767 25.5739 23.8469 25.5739C22.6172 25.5739 21.6203 24.577 21.6203 23.3472V18.6026C21.6203 16.9427 21.5908 14.8058 19.3064 14.8058C17.0219 14.8058 16.6334 16.6157 16.6334 18.4944V23.3509C16.6334 24.5786 15.6382 25.5739 14.4105 25.5739C13.1827 25.5739 12.1875 24.5786 12.1875 23.3509V13.3796Z"
            fill="white" />
    </symbol>
    <symbol id="menu-whatsapp" xmlns="http://www.w3.org/2000/svg" width="31" height="30"
        viewBox="0 0 31 30" fill="none">
        <path
            d="M26 0H5C2.51472 0 0.5 2.01472 0.5 4.5V25.5C0.5 27.9853 2.51472 30 5 30H26C28.4853 30 30.5 27.9853 30.5 25.5V4.5C30.5 2.01472 28.4853 0 26 0Z"
            fill="#25D366" />
        <path
            d="M7.7061 23.0269L8.52641 19.2184C7.47207 17.5554 7.06077 15.5648 7.36968 13.6201C7.67858 11.6755 8.68647 9.91035 10.2042 8.65594C11.722 7.40153 13.6453 6.74405 15.6134 6.80685C17.5814 6.86965 19.4589 7.64842 20.8936 8.99704C22.3283 10.3457 23.2216 12.1714 23.4059 14.1319C23.5902 16.0923 23.0529 18.0525 21.8946 19.6449C20.7364 21.2373 19.037 22.3523 17.1151 22.7808C15.1932 23.2093 13.1811 22.9218 11.4561 21.9723L7.7061 23.0269Z"
            fill="#25D366" stroke="white" stroke-width="2" />
        <path
            d="M18.5485 15.9965C18.3727 15.8793 18.1969 15.8207 18.0211 16.0551L17.318 16.9926C17.1422 17.1098 17.0251 17.1684 16.7907 17.0512C15.9118 16.5824 14.6813 16.0551 13.6266 14.2973C13.568 14.0629 13.6852 13.9457 13.8024 13.8285L14.3297 13.0082C14.4469 12.891 14.3883 12.7738 14.3297 12.6566L13.6266 10.9574C13.4508 10.4887 13.2751 10.5473 13.0993 10.5473H12.6305C12.5133 10.5473 12.279 10.6059 12.0446 10.8402C10.7555 12.1293 11.2829 13.9457 12.2204 15.1176C12.3961 15.352 13.568 17.4613 16.0876 18.5746C17.9626 19.3949 18.3727 19.2777 18.9001 19.1605C19.5446 19.102 20.1891 18.5746 20.4821 18.0473C20.5407 17.8715 20.8336 17.1098 20.5993 16.9926"
            fill="white" />
    </symbol>
    <symbol id="menu-rewards" xmlns="http://www.w3.org/2000/svg" width="32" height="32"  viewBox="0 0 32 32" xml:space="preserve">
        <style>
        .st0{fill:none;stroke:#464948;stroke-width:2;stroke-linecap:round;stroke-linejoin:round;stroke-miterlimit:10}
       </style>
        <path class="st0" d="M23 7h6v2.7c0 4-3.2 7.3-7.3 7.3h0M9 7H3v2.7c0 4 3.2 7.3 7.3 7.3h0M22 29H10v-3c0-1.1.9-2 2-2h8c1.1 0 2 .9 2 2z"/>
        <path class="st0" d="M18 24v-4.3c2.9-.9 5-3.5 5-6.7V5H9v8c0 3.2 2.1 5.8 5 6.7V24"/>
    </symbol>
</svg>