<svg xmlns:xlink="http://www.w3.org/1999/xlink" width="52" height="42" viewBox="0 0 52 42" fill="none" xmlns="http://www.w3.org/2000/svg"><path d="M31.4109 30.6159H20.5938V10.7068H31.4111L31.4109 30.6159Z" fill="#FF5F00"></path><path d="M21.28 20.6617C21.28 16.6232 23.1264 13.0256 26.0016 10.7072C23.8252 8.94968 21.1334 7.99582 18.3618 8.00001C11.5344 8.00001 6 13.6688 6 20.6617C6 27.6547 11.5344 33.3235 18.3618 33.3235C21.1334 33.3277 23.8254 32.3738 26.0018 30.6163C23.1268 28.2983 21.28 24.7005 21.28 20.6617Z" fill="#EB001B"></path><path d="M46.0028 20.6617C46.0028 27.6547 40.4684 33.3235 33.641 33.3235C30.8691 33.3276 28.1768 32.3738 26 30.6163C28.876 28.2979 30.7224 24.7005 30.7224 20.6617C30.7224 16.623 28.876 13.0256 26 10.7072C28.1768 8.94974 30.8689 7.99589 33.6408 8.00001C40.4682 8.00001 46.0026 13.6688 46.0026 20.6617" fill="#F79E1B"></path></svg>