<svg xmlns:xlink="http://www.w3.org/1999/xlink" width="52" height="42" xmlns="http://www.w3.org/2000/svg" viewBox="0 0 52 42"><path fill="#03A9F4" d="M37.3,11.8c-0.2-0.1-0.5-0.1-0.7,0c-0.2,0.1-0.4,0.3-0.4,0.6c0,0.2-0.1,0.5-0.1,0.7c-1.4,6.3-4.2,9.4-8.5,9.4h-6.4c-0.3,0-0.6,0.2-0.7,0.6l-2.1,10L18,35.5c-0.2,1.2,0.5,2.3,1.7,2.5c0.1,0,0.3,0,0.4,0h4.3c1,0,1.8-0.7,2.1-1.6l1.7-6.9h3.7c4.4,0,7.4-3.5,8.5-9.8l0,0C41.1,16.7,39.9,13.5,37.3,11.8z"></path><path fill="#283593" d="M36,6.5c-1.4-1.6-3.4-2.5-5.5-2.5H18.6c-1.8,0-3.3,1.3-3.5,3l-3.7,24.4c-0.2,1.2,0.6,2.3,1.8,2.4c0.1,0,0.2,0,0.3,0H19c0.3,0,0.6-0.2,0.7-0.6l2-9.4h5.8c5.1,0,8.4-3.5,9.9-10.5c0.1-0.3,0.1-0.6,0.1-0.8C38,10.3,37.4,8.1,36,6.5z"></path></svg>